<?xml version="1.0" standalone="no"?><!DOCTYPE svg PUBLIC "-//W3C//DTD SVG 1.1//EN" "http://www.w3.org/Graphics/SVG/1.1/DTD/svg11.dtd"><svg t="1760512573347" class="icon" viewBox="0 0 1025 1024" version="1.1" xmlns="http://www.w3.org/2000/svg" p-id="29920" xmlns:xlink="http://www.w3.org/1999/xlink" width="256.25" height="256"><path d="M1024.896 448z m0 86.656v-85.344l0.896 84.896-0.896 0.416z m-256 128.224l-256 128.224L0 534.24 0.896 448l512 257.76 256-128.224v85.344zM512.896 64l512.896 256.896L512.896 577.76 0 320.896 512.896 64z m512 576z m0 86.656v-85.344l0.896 84.896-0.896 0.416z m-256 128.224l-256 128.224L0 726.24 0.896 640l512 257.76 256-128.224v85.344zM918.24 512l-42.656 21.344V768l42.656-42.656z m-21.664 298.656L992.896 576l-181.344 96z" p-id="29921" data-spm-anchor-id="a313x.search_index.0.i13.97003a817rF1ov" class="" fill="#2c2c2c"></path></svg>